HIERARCHY
ROOT Hips
{
    OFFSET 0.000000 0.000000 0.000000
    CHANNELS 6 Xposition Yposition Zposition Zrotation Xrotation Yrotation
    JOINT Spine
    {
        OFFSET -0.000000 14.517291 0.000000
        CHANNELS 3 Zrotation Xrotation Yrotation
        JOINT Spine1
        {
            OFFSET -0.000000 37.558300 0.000000
            CHANNELS 3 Zrotation Xrotation Yrotation
            JOINT Neck
            {
                OFFSET -0.000000 37.404057 3.400369
                CHANNELS 3 Zrotation Xrotation Yrotation
                JOINT Head
                {
                    OFFSET -0.000000 24.785618 -3.540803
                    CHANNELS 3 Zrotation Xrotation Yrotation
                    End Site
                    {
                        OFFSET -0.000000 35.408028 0.000000
                    }
                }
            }
            JOINT LeftShoulder
            {
                OFFSET 6.992933 33.973492 -0.192664
                CHANNELS 3 Zrotation Xrotation Yrotation
                JOINT LeftArm
                {
                    OFFSET 21.527611 0.000000 0.000000
                    CHANNELS 3 Zrotation Xrotation Yrotation
                    JOINT LeftForeArm
                    {
                        OFFSET 56.353916 0.000000 0.000000
                        CHANNELS 3 Zrotation Xrotation Yrotation
                        JOINT LeftHand
                        {
                            OFFSET 47.774071 0.000000 0.000000
                            CHANNELS 3 Zrotation Xrotation Yrotation
                            End Site
                            {
                                OFFSET 26.556021 0.000000 0.000000
                            }
                        }
                    }
                }
            }
            JOINT RightShoulder
            {
                OFFSET -7.065357 33.973492 -0.192664
                CHANNELS 3 Zrotation Xrotation Yrotation
                JOINT RightArm
                {
                    OFFSET -21.527611 0.000000 0.000000
                    CHANNELS 3 Zrotation Xrotation Yrotation
                    JOINT RightForeArm
                    {
                        OFFSET -56.353916 0.000000 0.000000
                        CHANNELS 3 Zrotation Xrotation Yrotation
                        JOINT RightHand
                        {
                            OFFSET -47.774071 0.000000 0.000000
                            CHANNELS 3 Zrotation Xrotation Yrotation
                            End Site
                            {
                                OFFSET -26.556021 0.000000 0.000000
                            }
                        }
                    }
                }
            }
        }
    }
    JOINT LeftUpLeg
    {
        OFFSET 17.704014 0.000000 0.000000
        CHANNELS 3 Zrotation Xrotation Yrotation
        JOINT LeftLeg
        {
            OFFSET -0.000000 -81.181816 0.000000
            CHANNELS 3 Zrotation Xrotation Yrotation
            JOINT LeftFoot
            {
                OFFSET -0.000000 -62.821102 0.000000
                CHANNELS 3 Zrotation Xrotation Yrotation
                JOINT LeftToeBase
                {
                    OFFSET -0.000000 -11.507608 26.556021
                    CHANNELS 3 Zrotation Xrotation Yrotation
                    End Site
                    {
                        OFFSET -0.000000 0.000000 7.081605
                    }
                }
            }
        }
    }
    JOINT RightUpLeg
    {
        OFFSET -17.704014 0.000000 0.000000
        CHANNELS 3 Zrotation Xrotation Yrotation
        JOINT RightLeg
        {
            OFFSET -0.000000 -81.181816 0.000000
            CHANNELS 3 Zrotation Xrotation Yrotation
            JOINT RightFoot
            {
                OFFSET -0.000000 -62.821102 0.000000
                CHANNELS 3 Zrotation Xrotation Yrotation
                JOINT RightToeBase
                {
                    OFFSET -0.000000 -11.507608 26.556021
                    CHANNELS 3 Zrotation Xrotation Yrotation
                    End Site
                    {
                        OFFSET -0.000000 0.000000 7.081605
                    }
                }
            }
        }
    }
}
MOTION
Frames:    6
Frame Time:    0.008333
15.235488    151.189178    -94.225105    -4.690789    -2.822123    24.228815    0.608920    -0.143582    0.537239    -9.754259    -0.910500    0.104571    15.647135    2.565371    2.811459    5.474250    -2.181172    1.830252    13.918080    -1.011495    -14.066979    -20.078825    -16.634811    -29.884146    -21.423922    -28.541782    -103.695824    -28.674595    -43.928890    -33.919724    -13.821802    -0.150874    -6.888796    22.579943    19.850903    11.667396    11.505232    13.263503    2.908243    10.531377    14.162209    13.158422    13.844669    -17.640585    -1.229806    -19.922644    51.085682    -12.037556    15.229694    -28.585136    46.838795    0.000000    0.000000    0.000000    -21.814650    -7.459359    -10.156920    3.881950    10.367447    -12.724763    18.455778    12.333906    -22.739719    0.000000    0.000000    0.000000    
14.959626    151.214828    -94.053940    -4.646947    -2.783867    24.256281    0.620126    -0.159611    0.504223    -9.803344    -0.950843    0.089736    15.645235    2.643504    2.812619    5.523668    -2.285831    1.855577    13.961892    -1.010548    -14.077217    -20.730576    -18.925167    -29.999306    -22.704363    -25.465332    -103.083794    -27.830198    -42.758259    -33.525188    -13.796141    -0.134649    -6.862524    22.589966    19.822325    11.681577    11.502072    13.292410    2.801536    10.553328    14.207497    13.197251    13.883771    -17.621046    -1.331237    -19.903286    50.991493    -12.034466    15.083707    -28.584843    46.838985    0.000000    0.000000    0.000000    -21.725836    -7.431912    -10.346366    3.864847    10.409080    -12.589994    18.162079    12.000127    -22.577616    0.000000    0.000000    0.000000    
14.686110    151.242310    -93.878067    -4.620526    -2.755510    24.300438    0.600509    -0.159309    0.470562    -9.744451    -0.986691    0.075965    15.567217    2.583237    2.819329    5.601744    -2.261753    1.875550    13.918371    -1.025677    -14.078353    -20.651714    -18.740828    -29.974623    -22.566643    -25.675583    -103.163208    -27.989010    -42.769939    -33.588425    -13.841352    -0.142274    -6.893797    22.603424    19.824144    11.682009    11.502176    13.311644    2.839669    10.575191    14.220716    13.145620    13.942839    -17.610964    -1.420444    -19.878176    50.898876    -12.027658    14.850730    -28.613832    46.812405    0.000000    0.000000    0.000000    -21.600876    -7.405103    -10.489011    3.840959    10.458548    -12.581234    17.797201    11.690365    -22.355148    0.000000    0.000000    0.000000    
14.424488    151.267349    -93.720634    -4.589674    -2.745980    24.338455    0.643354    -0.133659    0.438405    -9.806844    -1.028811    0.061305    15.596826    2.600448    2.811385    5.611900    -2.304207    1.869648    13.993383    -1.000381    -14.069680    -20.665789    -18.830494    -29.998678    -22.565346    -25.604227    -103.161095    -28.015238    -42.710243    -33.554016    -13.817513    -0.109007    -6.917350    22.596684    19.771021    11.734982    11.578329    13.333256    2.817307    10.425200    14.228682    13.179011    13.990782    -17.580702    -1.502784    -19.814028    50.820652    -12.051016    14.717278    -28.617912    46.800995    0.000000    0.000000    0.000000    -21.468954    -7.398554    -10.508080    3.817476    10.540459    -12.615632    17.300947    11.383170    -22.148758    0.000000    0.000000    0.000000    
14.178769    151.304230    -93.574837    -4.524140    -2.725905    24.368599    0.606284    -0.103372    0.423063    -9.773813    -1.055128    0.054093    15.487889    2.576955    2.777601    5.741743    -2.327817    1.867440    13.997064    -1.041186    -14.093419    -20.630074    -18.852196    -29.956972    -22.622307    -25.522646    -103.172470    -28.076927    -42.679848    -33.615383    -13.829432    -0.106980    -6.879709    22.601803    19.751829    11.649098    11.561108    13.352036    2.850512    10.555728    14.251588    13.094221    13.996139    -17.521780    -1.559189    -19.717913    50.719238    -12.110567    14.679302    -28.555546    46.790371    0.000000    0.000000    0.000000    -21.383444    -7.405585    -10.455667    3.814293    10.633342    -12.607456    16.996262    11.062479    -22.148809    0.000000    0.000000    0.000000    
13.932814    151.336502    -93.429520    -4.462723    -2.711147    24.394924    0.597243    -0.084373    0.425138    -9.826644    -1.063635    0.053676    15.531123    2.592939    2.761723    5.748527    -2.403106    1.852351    14.053624    -1.070850    -14.153454    -20.552057    -18.692879    -29.930237    -22.511091    -25.739708    -103.213913    -28.236290    -42.703671    -33.701950    -13.785007    -0.103667    -6.886135    22.620296    19.864906    11.608535    11.507392    13.321939    2.853959    10.597399    14.230873    13.133633    14.016306    -17.443233    -1.609937    -19.634918    50.514275    -12.124955    14.444563    -28.578339    46.747669    0.000000    0.000000    0.000000    -21.292130    -7.419339    -10.349284    3.808657    10.729527    -12.590259    16.717220    10.733863    -22.201393    0.000000    0.000000    0.000000    
